<svg width="34" height="40" viewBox="0 0 34 40" fill="none" xmlns="http://www.w3.org/2000/svg">
<path fill-rule="evenodd" clip-rule="evenodd" d="M33.0317 36.9829C33.0234 36.4531 32.8053 35.9483 32.4252 35.5792C32.0451 35.2101 31.5341 35.0069 31.0043 35.0141H2.99654C2.73152 35.0104 2.46841 35.0594 2.22248 35.1582C1.97655 35.257 1.75272 35.4037 1.56399 35.5898C1.37526 35.7759 1.2254 35.9977 1.12311 36.2422C1.02082 36.4867 0.96814 36.7491 0.96814 37.0141C0.96814 37.2792 1.02082 37.5416 1.12311 37.7861C1.2254 38.0306 1.37526 38.2523 1.56399 38.4384C1.75272 38.6245 1.97655 38.7712 2.22248 38.8701C2.46841 38.9689 2.73152 39.0179 2.99654 39.0141H31.0043C31.2719 39.0178 31.5375 38.9677 31.7854 38.8669C32.0333 38.766 32.2584 38.6165 32.4474 38.4271C32.6365 38.2377 32.7856 38.0123 32.8859 37.7642C32.9863 37.5161 33.0358 37.2504 33.0317 36.9829L33.0317 36.9829ZM30.9965 18.9829C30.9785 17.8921 30.0914 17.0162 29.0004 17.0141L19.0004 17.0141L18.9964 3.01413C19.0002 2.7491 18.9512 2.48598 18.8524 2.24005C18.7536 1.99411 18.6068 1.77027 18.4208 1.58153C18.2347 1.39279 18.0129 1.24292 17.7684 1.14063C17.5239 1.03833 17.2615 0.985657 16.9964 0.985657C16.7314 0.985657 16.469 1.03833 16.2245 1.14063C15.98 1.24292 15.7582 1.39279 15.5721 1.58153C15.386 1.77027 15.2393 1.99411 15.1405 2.24005C15.0417 2.48598 14.9927 2.74911 14.9964 3.01413L15.0004 17.0141L5.00044 17.0141C3.21728 17.0121 2.32204 19.1669 3.58248 20.4282L15.5864 32.4282C16.3675 33.2089 17.6335 33.2089 18.4145 32.4282L30.4145 20.4282C30.7959 20.0449 31.0059 19.5235 30.9965 18.9829L30.9965 18.9829Z" fill="white"/>
</svg>
