<svg width="38" height="38" viewBox="0 0 38 38" fill="none" xmlns="http://www.w3.org/2000/svg">
<g id="Icon/Fill/fire">
<path id="Mask" fill-rule="evenodd" clip-rule="evenodd" d="M22.1018 28.537C21.0457 29.5456 19.6476 30.0934 18.1624 30.0839H18.1608C16.6773 30.0713 15.2887 29.4997 14.25 28.4753C12.1141 26.371 12.1426 22.97 14.3149 20.8974L17.7397 17.6231C17.8806 17.4885 18.0706 17.4157 18.2701 17.4173V17.4173C18.468 17.4188 18.658 17.4948 18.7958 17.631L22.1667 20.9576C24.3026 23.0634 24.2741 26.4628 22.1018 28.537M26.6095 12.6451L19.3373 5.21769C18.7324 4.59861 17.7238 4.59861 17.0968 5.19394C16.758 5.51694 16.5775 5.97452 16.6076 6.44161C16.6218 6.66327 16.6218 6.88177 16.6218 7.11611C16.6218 11.1647 15.6038 13.5587 15.0417 14.1509C14.8026 13.888 14.3688 13.1977 14.003 11.7869C13.8605 11.2359 13.433 10.8037 12.8836 10.6549C12.331 10.5092 11.7452 10.6659 11.3446 11.0697L9.7866 12.6419C5.17751 17.3397 5.18385 24.9935 9.79926 29.6976C12.0365 31.9871 15.0179 33.2474 18.1957 33.2506H18.2083C21.3893 33.2506 24.377 31.9903 26.6238 29.6992C31.2423 24.9935 31.2344 17.3397 26.6095 12.6451" fill="#FC3D3D"/>
<mask id="mask0" mask-type="alpha" maskUnits="userSpaceOnUse" x="6" y="4" width="25" height="30">
<path id="Mask_2" fill-rule="evenodd" clip-rule="evenodd" d="M22.1018 28.537C21.0457 29.5456 19.6476 30.0934 18.1624 30.0839H18.1608C16.6773 30.0713 15.2887 29.4997 14.25 28.4753C12.1141 26.371 12.1426 22.97 14.3149 20.8974L17.7397 17.6231C17.8806 17.4885 18.0706 17.4157 18.2701 17.4173V17.4173C18.468 17.4188 18.658 17.4948 18.7958 17.631L22.1667 20.9576C24.3026 23.0634 24.2741 26.4628 22.1018 28.537M26.6095 12.6451L19.3373 5.21769C18.7324 4.59861 17.7238 4.59861 17.0968 5.19394C16.758 5.51694 16.5775 5.97452 16.6076 6.44161C16.6218 6.66327 16.6218 6.88177 16.6218 7.11611C16.6218 11.1647 15.6038 13.5587 15.0417 14.1509C14.8026 13.888 14.3688 13.1977 14.003 11.7869C13.8605 11.2359 13.433 10.8037 12.8836 10.6549C12.331 10.5092 11.7452 10.6659 11.3446 11.0697L9.7866 12.6419C5.17751 17.3397 5.18385 24.9935 9.79926 29.6976C12.0365 31.9871 15.0179 33.2474 18.1957 33.2506H18.2083C21.3893 33.2506 24.377 31.9903 26.6238 29.6992C31.2423 24.9935 31.2344 17.3397 26.6095 12.6451" fill="white"/>
</mask>
<g mask="url(#mask0)">
<g id="&#240;&#159;&#142;&#168; Color">
<rect id="Base" width="38" height="38" fill="#FC3D3D"/>
</g>
</g>
</g>
</svg>
