<svg width="38" height="38" viewBox="0 0 38 38" fill="none" xmlns="http://www.w3.org/2000/svg">
<g id="Icon/Fill/heart">
<path id="Mask" fill-rule="evenodd" clip-rule="evenodd" d="M19.0001 33.25C18.5789 33.25 18.1767 33.0838 17.8791 32.7845L5.58132 20.4662C2.35766 17.2362 2.35766 11.9811 5.58132 8.75112C7.13774 7.19312 9.21666 6.33337 11.4317 6.33337C13.6468 6.33337 15.7257 7.19312 17.2822 8.75112L19.0001 10.4722L20.7164 8.75271C22.2744 7.19312 24.3533 6.33337 26.5684 6.33337C28.7835 6.33337 30.8624 7.19312 32.4188 8.75112C35.6425 11.9811 35.6425 17.2362 32.4204 20.4662L20.1211 32.7861C19.8234 33.0838 19.4212 33.25 19.0001 33.25Z" fill="#231F20"/>
<mask id="mask0" mask-type="alpha" maskUnits="userSpaceOnUse" x="3" y="6" width="32" height="28">
<path id="Mask_2" fill-rule="evenodd" clip-rule="evenodd" d="M19.0001 33.25C18.5789 33.25 18.1767 33.0838 17.8791 32.7845L5.58132 20.4662C2.35766 17.2362 2.35766 11.9811 5.58132 8.75112C7.13774 7.19312 9.21666 6.33337 11.4317 6.33337C13.6468 6.33337 15.7257 7.19312 17.2822 8.75112L19.0001 10.4722L20.7164 8.75271C22.2744 7.19312 24.3533 6.33337 26.5684 6.33337C28.7835 6.33337 30.8624 7.19312 32.4188 8.75112C35.6425 11.9811 35.6425 17.2362 32.4204 20.4662L20.1211 32.7861C19.8234 33.0838 19.4212 33.25 19.0001 33.25Z" fill="white"/>
</mask>
<g mask="url(#mask0)">
<g id="&#240;&#159;&#142;&#168; Color">
<rect id="Base" width="38" height="38" fill="#FC3D3D"/>
</g>
</g>
</g>
</svg>
