<svg width="14" height="15" viewBox="0 0 14 15" fill="none" xmlns="http://www.w3.org/2000/svg">
<path d="M4.95557 10H4.25V7.28027L3.40771 7.5415V6.96777L4.87988 6.44043H4.95557V10ZM8.50537 8.53027C8.50537 9.02181 8.40365 9.39779 8.2002 9.6582C7.99674 9.91862 7.69889 10.0488 7.30664 10.0488C6.91927 10.0488 6.62305 9.92106 6.41797 9.66553C6.21289 9.40999 6.10791 9.04378 6.10303 8.56689V7.9126C6.10303 7.41618 6.20557 7.03939 6.41064 6.78223C6.61735 6.52507 6.91439 6.39648 7.30176 6.39648C7.68913 6.39648 7.98535 6.52425 8.19043 6.77979C8.39551 7.03369 8.50049 7.39909 8.50537 7.87598V8.53027ZM7.7998 7.8125C7.7998 7.5179 7.75911 7.30387 7.67773 7.17041C7.59798 7.03532 7.47266 6.96777 7.30176 6.96777C7.13574 6.96777 7.01286 7.03206 6.93311 7.16064C6.85498 7.2876 6.81348 7.48698 6.80859 7.75879V8.62305C6.80859 8.91276 6.84766 9.12842 6.92578 9.27002C7.00553 9.40999 7.13249 9.47998 7.30664 9.47998C7.47917 9.47998 7.60368 9.41243 7.68018 9.27734C7.75667 9.14225 7.79655 8.93555 7.7998 8.65723V7.8125Z" fill="#4F87F5"/>
<path d="M13.7015 6.06812C13.452 4.78469 12.8712 3.58881 12.0169 2.59908C11.1626 1.60935 10.0643 0.860175 8.8311 0.425859C7.59789 -0.00845675 6.27256 -0.112819 4.98656 0.123124C3.70057 0.359067 2.49861 0.927116 1.49989 1.77093V1.02098C1.49989 0.822083 1.42088 0.631332 1.28024 0.49069C1.1396 0.350048 0.948844 0.271036 0.749946 0.271036V0.271036C0.551048 0.271036 0.360296 0.350048 0.219654 0.49069C0.0790119 0.631332 0 0.822083 0 1.02098V3.72079C0 3.91968 0.0790119 4.11044 0.219654 4.25108C0.360296 4.39172 0.551048 4.47073 0.749946 4.47073L3.44225 4.50073C3.64115 4.50073 3.8319 4.42172 3.97254 4.28107C4.11318 4.14043 4.1922 3.94968 4.1922 3.75078C4.1922 3.55189 4.11318 3.36113 3.97254 3.22049C3.8319 3.07985 3.64115 3.00084 3.44225 3.00084H2.38483C3.48158 2.04362 4.88896 1.51782 6.34468 1.52142C7.8004 1.52501 9.20516 2.05776 10.2972 3.02039C11.3892 3.98301 12.094 5.30984 12.2801 6.75361C12.4663 8.19737 12.1212 9.65959 11.3092 10.8678C10.4196 12.1858 9.04313 13.0968 7.48224 13.4006C5.92135 13.7043 4.30371 13.376 2.98478 12.4877C2.68635 12.2926 2.40756 12.0691 2.15234 11.8202C2.01212 11.679 1.82154 11.5993 1.62253 11.5985C1.42353 11.5978 1.23239 11.6762 1.09117 11.8164C0.949953 11.9567 0.870223 12.1473 0.86952 12.3463C0.868817 12.5453 0.947198 12.7364 1.08742 12.8776C2.49272 14.2439 4.37706 15.0057 6.33704 15C6.82262 14.9993 7.30711 14.9541 7.78444 14.865C8.75174 14.6772 9.67256 14.3007 10.4943 13.7569C11.316 13.2132 12.0225 12.5128 12.5734 11.6958C13.1243 10.8789 13.5088 9.96135 13.705 8.99572C13.9011 8.03008 13.905 7.03527 13.7165 6.06812H13.7015Z" fill="#4F87F5"/>
</svg>
