<svg width="38" height="38" viewBox="0 0 38 38" fill="none" xmlns="http://www.w3.org/2000/svg">
<path fill-rule="evenodd" clip-rule="evenodd" d="M23.75 22.1667H19C18.126 22.1667 17.4166 21.459 17.4166 20.5834V15.8334C17.4166 14.9578 18.126 14.25 19 14.25C19.874 14.25 20.5833 14.9578 20.5833 15.8334V19H23.75C24.624 19 25.3333 19.7078 25.3333 20.5834C25.3333 21.459 24.624 22.1667 23.75 22.1667ZM20.5643 6.42521C20.5675 6.39196 20.5833 6.36662 20.5833 6.33337V4.75004H22.1667C23.0407 4.75004 23.75 4.04229 23.75 3.16671C23.75 2.29112 23.0407 1.58337 22.1667 1.58337H15.8333C14.9593 1.58337 14.25 2.29112 14.25 3.16671C14.25 4.04229 14.9593 4.75004 15.8333 4.75004H17.4167V6.33337C17.4167 6.36662 17.4325 6.39196 17.4357 6.42521C10.3123 7.20737 4.75 13.2557 4.75 20.5834C4.75 28.4415 11.1435 34.8334 19 34.8334C26.8565 34.8334 33.25 28.4415 33.25 20.5834C33.25 13.2557 27.6877 7.20737 20.5643 6.42521Z" fill="#231F20"/>
<mask id="mask0" mask-type="alpha" maskUnits="userSpaceOnUse" x="4" y="1" width="30" height="34">
<path fill-rule="evenodd" clip-rule="evenodd" d="M23.75 22.1667H19C18.126 22.1667 17.4166 21.459 17.4166 20.5834V15.8334C17.4166 14.9578 18.126 14.25 19 14.25C19.874 14.25 20.5833 14.9578 20.5833 15.8334V19H23.75C24.624 19 25.3333 19.7078 25.3333 20.5834C25.3333 21.459 24.624 22.1667 23.75 22.1667ZM20.5643 6.42521C20.5675 6.39196 20.5833 6.36662 20.5833 6.33337V4.75004H22.1667C23.0407 4.75004 23.75 4.04229 23.75 3.16671C23.75 2.29112 23.0407 1.58337 22.1667 1.58337H15.8333C14.9593 1.58337 14.25 2.29112 14.25 3.16671C14.25 4.04229 14.9593 4.75004 15.8333 4.75004H17.4167V6.33337C17.4167 6.36662 17.4325 6.39196 17.4357 6.42521C10.3123 7.20737 4.75 13.2557 4.75 20.5834C4.75 28.4415 11.1435 34.8334 19 34.8334C26.8565 34.8334 33.25 28.4415 33.25 20.5834C33.25 13.2557 27.6877 7.20737 20.5643 6.42521Z" fill="white"/>
</mask>
<g mask="url(#mask0)">
<rect width="38" height="38" fill="#FC3D3D"/>
</g>
</svg>
