<svg width="50" height="50" viewBox="0 0 50 50" fill="none" xmlns="http://www.w3.org/2000/svg">
<g id="Icon/Fill/trending-up">
<path id="Mask" fill-rule="evenodd" clip-rule="evenodd" d="M43.7339 14.506C43.7297 14.356 43.686 14.2143 43.6464 14.0706C43.6151 13.9498 43.6005 13.8268 43.5485 13.7164C43.5005 13.6081 43.4193 13.5206 43.3485 13.4206C43.261 13.2935 43.1818 13.1664 43.0693 13.0623C43.0505 13.0435 43.0422 13.0185 43.0214 13.0018C42.9464 12.9373 42.8547 12.9143 42.7735 12.8623C42.6485 12.781 42.5255 12.6977 42.3839 12.6435C42.2443 12.5935 42.1068 12.581 41.963 12.5602C41.863 12.5456 41.7735 12.4998 41.6672 12.4998H31.2505C30.0985 12.4998 29.1672 13.4331 29.1672 14.5831C29.1672 15.7331 30.0985 16.6664 31.2505 16.6664H37.138L28.7297 26.4748L19.8214 21.131C18.9401 20.5977 17.8068 20.7935 17.1485 21.5831L6.73179 34.0831C5.99638 34.9664 6.11513 36.281 6.99846 37.0164C7.39013 37.3414 7.86096 37.4998 8.33179 37.4998C8.92971 37.4998 9.52138 37.2456 9.93388 36.7498L19.2089 25.6206L28.0943 30.9539C28.9672 31.4768 30.088 31.2935 30.7485 30.5227L39.5839 20.2143V24.9998C39.5839 26.1498 40.5151 27.0831 41.6672 27.0831C42.8193 27.0831 43.7505 26.1498 43.7505 24.9998V14.5831C43.7505 14.556 43.736 14.5331 43.7339 14.506" fill="#231F20"/>
<mask id="mask0" mask-type="alpha" maskUnits="userSpaceOnUse" x="6" y="12" width="38" height="26">
<path id="Mask_2" fill-rule="evenodd" clip-rule="evenodd" d="M43.7339 14.506C43.7297 14.356 43.686 14.2143 43.6464 14.0706C43.6151 13.9498 43.6005 13.8268 43.5485 13.7164C43.5005 13.6081 43.4193 13.5206 43.3485 13.4206C43.261 13.2935 43.1818 13.1664 43.0693 13.0623C43.0505 13.0435 43.0422 13.0185 43.0214 13.0018C42.9464 12.9373 42.8547 12.9143 42.7735 12.8623C42.6485 12.781 42.5255 12.6977 42.3839 12.6435C42.2443 12.5935 42.1068 12.581 41.963 12.5602C41.863 12.5456 41.7735 12.4998 41.6672 12.4998H31.2505C30.0985 12.4998 29.1672 13.4331 29.1672 14.5831C29.1672 15.7331 30.0985 16.6664 31.2505 16.6664H37.138L28.7297 26.4748L19.8214 21.131C18.9401 20.5977 17.8068 20.7935 17.1485 21.5831L6.73179 34.0831C5.99638 34.9664 6.11513 36.281 6.99846 37.0164C7.39013 37.3414 7.86096 37.4998 8.33179 37.4998C8.92971 37.4998 9.52138 37.2456 9.93388 36.7498L19.2089 25.6206L28.0943 30.9539C28.9672 31.4768 30.088 31.2935 30.7485 30.5227L39.5839 20.2143V24.9998C39.5839 26.1498 40.5151 27.0831 41.6672 27.0831C42.8193 27.0831 43.7505 26.1498 43.7505 24.9998V14.5831C43.7505 14.556 43.736 14.5331 43.7339 14.506" fill="white"/>
</mask>
<g mask="url(#mask0)">
<g id="&#240;&#159;&#142;&#168; Color">
<rect id="Base" width="50" height="50" fill="#FC3D3D"/>
</g>
</g>
</g>
</svg>
