<svg width="15" height="15" viewBox="0 0 15 15" fill="none" xmlns="http://www.w3.org/2000/svg">
<g clip-path="url(#clip0)">
<path d="M6.87469 10.4781V6.72813H8.12531V10.4781H10.0003L7.5 13.2034L4.99969 10.4781H6.87469ZM15 11.5019C15 13.5934 13.4747 15.25 11.5378 15.25H4.03781C1.815 15.25 0 13.2813 0 10.8775C0 8.74563 1.38656 6.98125 3.31688 6.56313C4.1625 4.98813 5.73937 4 7.5 4C9.73125 4 11.6325 5.58813 12.2372 7.825C13.7972 8.18125 15 9.72813 15 11.5028V11.5019ZM11.2031 8.49438C10.845 6.60438 9.315 5.23187 7.5 5.23187C6.075 5.23187 4.81875 6.07188 4.20937 7.39188L4.07344 7.68813L3.76688 7.73125C2.25281 7.94219 1.15406 9.25938 1.15406 10.8766C1.15406 12.6044 2.45531 14.0172 4.03875 14.0172H11.5387C12.8325 14.0172 13.8459 12.9166 13.8459 11.5019C13.8459 10.2119 12.8803 9.08594 11.7225 8.98563L11.2903 8.94813L11.2041 8.49438H11.2031Z" fill="white"/>
<path d="M1.24609 2.72266C1.24609 2.63281 1.27604 2.5599 1.33594 2.50391C1.39714 2.44792 1.47331 2.41992 1.56445 2.41992C1.6569 2.41992 1.73307 2.44792 1.79297 2.50391C1.85417 2.5599 1.88477 2.63281 1.88477 2.72266C1.88477 2.8112 1.85482 2.88346 1.79492 2.93945C1.73503 2.99414 1.6582 3.02148 1.56445 3.02148C1.47201 3.02148 1.39583 2.99414 1.33594 2.93945C1.27604 2.88346 1.24609 2.8112 1.24609 2.72266ZM3.90359 0.15625L4.63406 2.21875L5.36063 0.15625H6.13016V3H5.54227V2.22266L5.60086 0.880859L4.83328 3H4.43094L3.66531 0.882812L3.72391 2.22266V3H3.13797V0.15625H3.90359ZM7.94781 1.99805V3H7.36188V0.15625H8.47125C8.68479 0.15625 8.87229 0.195312 9.03375 0.273438C9.19651 0.351562 9.32151 0.462891 9.40875 0.607422C9.49599 0.750651 9.53961 0.914062 9.53961 1.09766C9.53961 1.3763 9.44391 1.59635 9.2525 1.75781C9.0624 1.91797 8.79872 1.99805 8.46148 1.99805H7.94781ZM7.94781 1.52344H8.47125C8.6262 1.52344 8.74404 1.48698 8.82477 1.41406C8.9068 1.34115 8.94781 1.23698 8.94781 1.10156C8.94781 0.96224 8.9068 0.849609 8.82477 0.763672C8.74273 0.677734 8.62945 0.633464 8.48492 0.630859H7.94781V1.52344ZM12.2733 1.92969H12.5955V2.38477H12.2733V3H11.7088V2.38477H10.5428L10.5174 2.0293L11.703 0.15625H12.2733V1.92969ZM11.0799 1.92969H11.7088V0.925781L11.6717 0.990234L11.0799 1.92969Z" fill="white"/>
</g>
<defs>
<clipPath id="clip0">
<rect width="15" height="15" fill="white"/>
</clipPath>
</defs>
</svg>
