<svg width="17" height="17" viewBox="0 0 17 17" fill="none" xmlns="http://www.w3.org/2000/svg">
<path d="M8.5 0C6.81886 0 5.17547 0.498516 3.77766 1.43251C2.37984 2.3665 1.29037 3.69402 0.647028 5.24719C0.00368295 6.80036 -0.164645 8.50943 0.163329 10.1583C0.491303 11.8071 1.30085 13.3217 2.4896 14.5104C3.67834 15.6992 5.1929 16.5087 6.84173 16.8367C8.49057 17.1646 10.1996 16.9963 11.7528 16.353C13.306 15.7096 14.6335 14.6202 15.5675 13.2223C16.5015 11.8245 17 10.1811 17 8.5C17 6.24566 16.1045 4.08365 14.5104 2.48959C12.9164 0.895533 10.7543 0 8.5 0ZM11.3668 11.3668C11.222 11.5107 11.0262 11.5915 10.822 11.5915C10.6179 11.5915 10.4221 11.5107 10.2773 11.3668L7.95909 9.04863C7.88608 8.97707 7.82799 8.89172 7.7882 8.79755C7.74841 8.70337 7.7277 8.60224 7.72727 8.5V3.86364C7.72727 3.6587 7.80869 3.46215 7.9536 3.31724C8.09852 3.17232 8.29506 3.09091 8.5 3.09091C8.70494 3.09091 8.90149 3.17232 9.0464 3.31724C9.19132 3.46215 9.27273 3.6587 9.27273 3.86364V8.18318L11.3668 10.2773C11.5107 10.4221 11.5915 10.6179 11.5915 10.822C11.5915 11.0262 11.5107 11.222 11.3668 11.3668Z" fill="white"/>
</svg>
