<svg width="14" height="15" viewBox="0 0 14 15" fill="none" xmlns="http://www.w3.org/2000/svg">
<path d="M6.81055 10H6.10498V7.28027L5.2627 7.5415V6.96777L6.73486 6.44043H6.81055V10ZM10.3604 8.53027C10.3604 9.02181 10.2586 9.39779 10.0552 9.6582C9.85173 9.91862 9.55387 10.0488 9.16162 10.0488C8.77425 10.0488 8.47803 9.92106 8.27295 9.66553C8.06787 9.40999 7.96289 9.04378 7.95801 8.56689V7.9126C7.95801 7.41618 8.06055 7.03939 8.26562 6.78223C8.47233 6.52507 8.76937 6.39648 9.15674 6.39648C9.54411 6.39648 9.84033 6.52425 10.0454 6.77979C10.2505 7.03369 10.3555 7.39909 10.3604 7.87598V8.53027ZM9.65479 7.8125C9.65479 7.5179 9.6141 7.30387 9.53271 7.17041C9.45296 7.03532 9.32764 6.96777 9.15674 6.96777C8.99072 6.96777 8.86784 7.03206 8.78809 7.16064C8.70996 7.2876 8.66846 7.48698 8.66357 7.75879V8.62305C8.66357 8.91276 8.70264 9.12842 8.78076 9.27002C8.86051 9.40999 8.98747 9.47998 9.16162 9.47998C9.33415 9.47998 9.45866 9.41243 9.53516 9.27734C9.61165 9.14225 9.65153 8.93555 9.65479 8.65723V7.8125Z" fill="white"/>
<path d="M0.153473 6.06812C0.403014 4.78469 0.983753 3.58881 1.83809 2.59908C2.69242 1.60935 3.79066 0.860175 5.02388 0.425859C6.25709 -0.00845675 7.58242 -0.112819 8.86842 0.123124C10.1544 0.359067 11.3564 0.927116 12.3551 1.77093V1.02098C12.3551 0.822083 12.4341 0.631332 12.5747 0.49069C12.7154 0.350048 12.9061 0.271036 13.105 0.271036C13.3039 0.271036 13.4947 0.350048 13.6353 0.49069C13.776 0.631332 13.855 0.822083 13.855 1.02098V3.72079C13.855 3.91968 13.776 4.11044 13.6353 4.25108C13.4947 4.39172 13.3039 4.47073 13.105 4.47073L10.4127 4.50073C10.2138 4.50073 10.0231 4.42172 9.88244 4.28108C9.7418 4.14043 9.66278 3.94968 9.66278 3.75078C9.66278 3.55189 9.7418 3.36113 9.88244 3.22049C10.0231 3.07985 10.2138 3.00084 10.4127 3.00084H11.4702C10.3734 2.04362 8.96602 1.51782 7.5103 1.52142C6.05458 1.52501 4.64982 2.05776 3.55781 3.02039C2.4658 3.98301 1.76103 5.30984 1.57484 6.75361C1.38865 8.19737 1.73374 9.65959 2.5458 10.8678C3.43538 12.1858 4.81185 13.0968 6.37274 13.4006C7.93364 13.7043 9.55127 13.376 10.8702 12.4876C11.1686 12.2926 11.4474 12.0691 11.7026 11.8202C11.8429 11.679 12.0334 11.5993 12.2324 11.5985C12.4315 11.5978 12.6226 11.6762 12.7638 11.8164C12.905 11.9567 12.9848 12.1473 12.9855 12.3463C12.9862 12.5453 12.9078 12.7364 12.7676 12.8776C11.3623 14.2439 9.47792 15.0057 7.51794 15C7.03236 14.9993 6.54787 14.9541 6.07054 14.865C5.10324 14.6772 4.18242 14.3007 3.36071 13.7569C2.53899 13.2132 1.83249 12.5128 1.28158 11.6958C0.730676 10.8789 0.346166 9.96135 0.150024 8.99572C-0.0461159 8.03008 -0.0500412 7.03527 0.138474 6.06812H0.153473Z" fill="white"/>
</svg>
