<svg width="18" height="17" viewBox="0 0 18 17" fill="none" xmlns="http://www.w3.org/2000/svg">
<path d="M14.1533 10.7663C14.0467 10.8726 14.0112 11.0144 14.0112 11.1561L14.7927 15.6178C14.8638 16.0431 14.6862 16.5038 14.3309 16.7519C13.9757 17 13.5138 17.0354 13.0875 16.8582L9.07718 14.7711C8.93508 14.7003 8.79298 14.7003 8.65088 14.7711L4.64052 16.8582C4.46289 16.9646 4.28527 17 4.10764 17C3.85897 17 3.64582 16.9291 3.43267 16.7874C3.07742 16.5393 2.8998 16.0785 2.97085 15.6532L3.75239 11.1916C3.78792 11.0498 3.71687 10.908 3.6103 10.8017L0.345954 7.61594C0.0262299 7.29697 -0.0803447 6.83623 0.0617548 6.41093C0.203854 5.98564 0.559103 5.70211 0.985402 5.63123L5.45759 4.95784C5.59969 4.9224 5.74179 4.85152 5.81284 4.70975L7.83381 0.637943C8.04696 0.248089 8.43773 0 8.86403 0C9.32585 0 9.71663 0.248089 9.89425 0.637943L11.9152 4.70975C11.9863 4.85152 12.0928 4.9224 12.2705 4.95784L16.7427 5.59578C17.2045 5.66667 17.5597 5.9502 17.7018 6.37549C17.8439 6.80079 17.7374 7.26152 17.4176 7.5805L14.1533 10.7663Z" fill="#FAB500"/>
</svg>
