<svg width="204" height="306" viewBox="0 0 204 306" fill="none" xmlns="http://www.w3.org/2000/svg">
<rect width="204" height="306" rx="5" fill="#666666"/>
<path d="M72.168 158V148.72H74.1357V156.375H77.8999V158H72.168ZM80.9087 154.439C80.9087 155.141 81.0229 155.673 81.2515 156.032C81.4842 156.392 81.8608 156.572 82.3813 156.572C82.8976 156.572 83.2679 156.394 83.4922 156.039C83.7207 155.679 83.835 155.146 83.835 154.439C83.835 153.736 83.7207 153.21 83.4922 152.858C83.2637 152.507 82.8892 152.332 82.3687 152.332C81.8524 152.332 81.48 152.507 81.2515 152.858C81.0229 153.205 80.9087 153.732 80.9087 154.439ZM85.8154 154.439C85.8154 155.594 85.5107 156.498 84.9014 157.149C84.292 157.801 83.4435 158.127 82.356 158.127C81.6746 158.127 81.0737 157.979 80.5532 157.683C80.0327 157.382 79.6328 156.953 79.3535 156.394C79.0742 155.835 78.9346 155.184 78.9346 154.439C78.9346 153.279 79.2371 152.378 79.8423 151.735C80.4474 151.092 81.298 150.77 82.394 150.77C83.0754 150.77 83.6763 150.918 84.1968 151.214C84.7173 151.511 85.1172 151.936 85.3965 152.49C85.6758 153.045 85.8154 153.694 85.8154 154.439ZM91.9219 158L91.5474 157.035H91.4966C91.1707 157.446 90.8343 157.731 90.4873 157.892C90.1445 158.049 89.696 158.127 89.1416 158.127C88.4603 158.127 87.9229 157.932 87.5293 157.543C87.14 157.154 86.9453 156.599 86.9453 155.88C86.9453 155.127 87.2077 154.572 87.7324 154.217C88.2614 153.857 89.057 153.658 90.1191 153.62L91.3506 153.582V153.271C91.3506 152.552 90.9824 152.192 90.2461 152.192C89.679 152.192 89.0125 152.363 88.2466 152.706L87.6055 151.398C88.4222 150.971 89.3278 150.757 90.3223 150.757C91.2744 150.757 92.0044 150.965 92.5122 151.379C93.02 151.794 93.2739 152.425 93.2739 153.271V158H91.9219ZM91.3506 154.712L90.6016 154.737C90.0387 154.754 89.6198 154.856 89.3447 155.042C89.0697 155.228 88.9321 155.512 88.9321 155.893C88.9321 156.438 89.2453 156.711 89.8716 156.711C90.3201 156.711 90.6777 156.582 90.9443 156.324C91.2152 156.066 91.3506 155.723 91.3506 155.296V154.712ZM97.5205 158.127C96.6868 158.127 96.0309 157.803 95.5527 157.156C95.0788 156.508 94.8418 155.611 94.8418 154.464C94.8418 153.301 95.083 152.395 95.5654 151.748C96.0521 151.096 96.7207 150.77 97.5713 150.77C98.4642 150.77 99.1455 151.117 99.6152 151.811H99.6787C99.5814 151.282 99.5327 150.81 99.5327 150.396V148.123H101.475V158H99.9897L99.6152 157.08H99.5327C99.0926 157.778 98.4219 158.127 97.5205 158.127ZM98.1997 156.584C98.6948 156.584 99.0566 156.441 99.2852 156.153C99.5179 155.865 99.6449 155.376 99.666 154.687V154.477C99.666 153.715 99.5475 153.169 99.3105 152.839C99.0778 152.509 98.6969 152.344 98.168 152.344C97.7363 152.344 97.3999 152.528 97.1587 152.896C96.9217 153.26 96.8032 153.792 96.8032 154.49C96.8032 155.188 96.9238 155.713 97.165 156.064C97.4062 156.411 97.7511 156.584 98.1997 156.584ZM103.417 149.069C103.417 148.438 103.769 148.123 104.471 148.123C105.174 148.123 105.525 148.438 105.525 149.069C105.525 149.369 105.436 149.604 105.258 149.773C105.085 149.938 104.822 150.021 104.471 150.021C103.769 150.021 103.417 149.704 103.417 149.069ZM105.436 158H103.5V150.903H105.436V158ZM114.024 158H112.088V153.855C112.088 153.343 111.997 152.96 111.815 152.706C111.633 152.448 111.344 152.319 110.946 152.319C110.404 152.319 110.013 152.501 109.771 152.865C109.53 153.224 109.41 153.823 109.41 154.661V158H107.474V150.903H108.953L109.213 151.811H109.321C109.537 151.468 109.833 151.21 110.209 151.037C110.59 150.859 111.022 150.77 111.504 150.77C112.33 150.77 112.956 150.994 113.383 151.443C113.811 151.887 114.024 152.53 114.024 153.373V158ZM122.194 150.903V151.887L121.083 152.173C121.286 152.49 121.388 152.846 121.388 153.239C121.388 154.001 121.121 154.596 120.588 155.023C120.059 155.446 119.323 155.658 118.379 155.658L118.03 155.639L117.744 155.607C117.545 155.759 117.446 155.929 117.446 156.115C117.446 156.394 117.801 156.534 118.512 156.534H119.718C120.497 156.534 121.089 156.701 121.496 157.035C121.906 157.369 122.111 157.86 122.111 158.508C122.111 159.337 121.764 159.98 121.07 160.438C120.381 160.895 119.388 161.123 118.093 161.123C117.103 161.123 116.346 160.95 115.821 160.603C115.3 160.26 115.04 159.777 115.04 159.155C115.04 158.728 115.173 158.37 115.44 158.083C115.707 157.795 116.098 157.59 116.614 157.467C116.415 157.382 116.242 157.245 116.094 157.054C115.946 156.86 115.872 156.654 115.872 156.438C115.872 156.168 115.95 155.943 116.106 155.766C116.263 155.584 116.489 155.406 116.786 155.232C116.413 155.072 116.117 154.813 115.897 154.458C115.681 154.103 115.573 153.684 115.573 153.201C115.573 152.427 115.825 151.828 116.329 151.405C116.832 150.982 117.552 150.77 118.487 150.77C118.686 150.77 118.921 150.789 119.191 150.827C119.466 150.861 119.642 150.886 119.718 150.903H122.194ZM116.716 159.003C116.716 159.27 116.843 159.479 117.097 159.631C117.355 159.784 117.715 159.86 118.176 159.86C118.87 159.86 119.414 159.765 119.807 159.574C120.201 159.384 120.397 159.124 120.397 158.793C120.397 158.527 120.281 158.343 120.048 158.241C119.816 158.14 119.456 158.089 118.969 158.089H117.966C117.611 158.089 117.312 158.171 117.071 158.336C116.834 158.506 116.716 158.728 116.716 159.003ZM117.42 153.227C117.42 153.612 117.507 153.916 117.681 154.141C117.858 154.365 118.127 154.477 118.487 154.477C118.851 154.477 119.117 154.365 119.287 154.141C119.456 153.916 119.541 153.612 119.541 153.227C119.541 152.372 119.189 151.944 118.487 151.944C117.776 151.944 117.42 152.372 117.42 153.227ZM123.095 157.092C123.095 156.737 123.19 156.468 123.381 156.286C123.571 156.104 123.848 156.013 124.212 156.013C124.564 156.013 124.834 156.106 125.025 156.292C125.22 156.479 125.317 156.745 125.317 157.092C125.317 157.427 125.22 157.691 125.025 157.886C124.83 158.076 124.559 158.171 124.212 158.171C123.857 158.171 123.582 158.078 123.387 157.892C123.193 157.702 123.095 157.435 123.095 157.092ZM126.802 157.092C126.802 156.737 126.897 156.468 127.088 156.286C127.278 156.104 127.556 156.013 127.919 156.013C128.271 156.013 128.542 156.106 128.732 156.292C128.927 156.479 129.024 156.745 129.024 157.092C129.024 157.427 128.927 157.691 128.732 157.886C128.537 158.076 128.266 158.171 127.919 158.171C127.564 158.171 127.289 158.078 127.094 157.892C126.9 157.702 126.802 157.435 126.802 157.092ZM130.509 157.092C130.509 156.737 130.604 156.468 130.795 156.286C130.985 156.104 131.263 156.013 131.626 156.013C131.978 156.013 132.249 156.106 132.439 156.292C132.634 156.479 132.731 156.745 132.731 157.092C132.731 157.427 132.634 157.691 132.439 157.886C132.244 158.076 131.973 158.171 131.626 158.171C131.271 158.171 130.996 158.078 130.801 157.892C130.607 157.702 130.509 157.435 130.509 157.092Z" fill="#252121"/>
</svg>
